<svg xmlns="http://www.w3.org/2000/svg" xmlns:xlink="http://www.w3.org/1999/xlink" width="1080" zoomAndPan="magnify" viewBox="0 0 810 809.999993" height="1080" preserveAspectRatio="xMidYMid meet" version="1.0"><path fill="#6ebec3" d="M 392.558594 644.605469 C 388.179688 619.867188 364.996094 603.46875 340.964844 608.136719 L 331.632812 609.832031 C 331.210938 609.972656 330.925781 609.691406 330.785156 609.265625 L 314.671875 519.078125 C 311.84375 502.960938 304.917969 487.835938 294.738281 475.253906 L 243.988281 412.632812 C 242.433594 410.792969 241.445312 408.53125 241.019531 406.128906 L 226.886719 327.25 C 223.210938 306.46875 210.203125 287.953125 191.121094 279.894531 C 178.398438 274.664062 166.804688 275.371094 156.628906 279.046875 C 156.0625 279.1875 155.640625 278.761719 155.78125 278.199219 L 179.386719 170.621094 C 189.28125 101.496094 94.289062 85.382812 79.867188 150.546875 L 13.429688 394.113281 C -0.566406 448.820312 14.84375 510.3125 52.726562 552.578125 C 52.726562 552.578125 103.335938 611.527344 103.335938 611.527344 C 110.121094 620.292969 120.015625 636.265625 121.710938 649.414062 C 97.113281 653.511719 80.574219 677.542969 85.097656 702.5625 L 93.015625 746.667969 C 97.398438 771.40625 120.582031 787.804688 144.613281 783.140625 L 364.851562 741.4375 C 388.886719 736.914062 404.859375 713.167969 400.476562 688.429688 Z M 72.234375 534.34375 C 40.289062 498.722656 27.28125 446.839844 39.015625 400.617188 C 39.015625 400.617188 105.3125 156.34375 105.3125 156.34375 C 105.3125 156.203125 105.3125 156.0625 105.457031 155.921875 C 111.957031 124.679688 158.75 131.746094 153.234375 166.097656 C 153.234375 166.097656 123.691406 313.539062 123.691406 313.539062 C 121.148438 321.878906 120.582031 330.925781 122.136719 339.546875 L 146.308594 474.691406 C 149.558594 492.21875 175.289062 487.128906 172.179688 469.742188 C 172.179688 469.742188 148.003906 334.601562 148.003906 334.601562 C 142.773438 298.976562 193.097656 289.648438 200.027344 326.261719 C 200.027344 326.261719 215.152344 410.652344 215.152344 410.652344 C 216.425781 417.578125 219.394531 424.222656 223.773438 429.597656 L 274.523438 492.21875 C 281.875 501.265625 286.820312 512.007812 288.800781 523.601562 L 304.917969 613.789062 C 305.480469 616.050781 149.84375 642.910156 149.277344 643.898438 C 142.492188 627.5 134.859375 606.15625 123.125 593.433594 C 123.125 593.714844 72.234375 534.34375 72.234375 534.34375 Z M 360.613281 717.40625 L 140.371094 759.109375 C 129.34375 761.230469 118.742188 753.738281 116.765625 742.429688 L 108.847656 698.324219 C 106.867188 687.015625 114.078125 676.128906 125.105469 674.152344 L 345.34375 632.449219 C 356.371094 630.328125 366.972656 637.820312 368.953125 649.128906 L 376.867188 693.234375 C 378.847656 704.402344 371.496094 715.285156 360.613281 717.40625 Z M 360.613281 717.40625 " fill-opacity="1" fill-rule="nonzero"/><path fill="#6ebec3" d="M 795.15625 394.113281 L 728.859375 150.265625 C 714.441406 85.097656 619.445312 101.214844 629.339844 170.339844 L 652.949219 277.914062 C 653.089844 278.480469 652.523438 278.90625 652.097656 278.761719 C 621 266.183594 585.941406 294.3125 581.84375 326.96875 C 581.84375 326.96875 567.707031 405.847656 567.707031 405.847656 C 570.957031 407.261719 515.121094 472.710938 513.988281 475.113281 C 503.8125 487.695312 496.886719 502.820312 494.058594 518.9375 L 477.941406 609.125 C 477.800781 609.546875 477.519531 609.832031 477.09375 609.691406 C 450.378906 601.207031 421.398438 615.203125 416.167969 644.464844 C 416.167969 644.464844 408.25 688.570312 408.25 688.570312 C 403.867188 713.308594 419.703125 737.054688 443.875 741.578125 L 664.113281 783.28125 C 688.148438 787.804688 711.328125 771.40625 715.710938 746.808594 L 723.628906 702.707031 C 728.011719 677.96875 712.179688 654.21875 688.003906 649.695312 C 687.296875 649.695312 686.167969 649.554688 686.449219 648.5625 C 690.972656 634.992188 697.757812 620.574219 705.394531 611.667969 L 756 552.722656 C 793.601562 510.453125 809.011719 448.960938 795.15625 394.113281 Z M 699.738281 698.183594 L 691.820312 742.285156 C 689.84375 753.59375 679.242188 761.085938 668.214844 758.96875 L 447.972656 717.40625 C 436.949219 715.285156 429.738281 704.542969 431.71875 693.234375 L 439.632812 649.128906 C 441.613281 637.820312 452.214844 630.328125 463.242188 632.449219 L 683.480469 674.152344 C 694.507812 675.988281 701.859375 686.875 699.738281 698.183594 Z M 767.167969 480.0625 C 757.695312 518.9375 709.492188 563.324219 685.460938 593.714844 C 673.726562 606.4375 666.09375 627.785156 659.308594 644.183594 C 658.742188 643.332031 503.105469 616.050781 503.671875 614.070312 C 503.671875 614.070312 519.785156 523.882812 519.785156 523.882812 C 521.90625 512.292969 526.710938 501.546875 534.0625 492.5 L 584.8125 429.878906 C 589.195312 424.367188 592.164062 417.863281 593.433594 410.9375 L 608.558594 326.542969 C 615.34375 290.070312 665.671875 299.121094 660.582031 334.882812 C 660.582031 334.882812 636.410156 470.023438 636.410156 470.023438 C 633.296875 487.269531 659.027344 492.359375 662.277344 474.972656 C 662.277344 474.972656 686.449219 339.832031 686.449219 339.832031 C 688.003906 331.066406 687.441406 322.160156 684.894531 313.820312 C 684.894531 313.820312 655.351562 166.382812 655.351562 166.382812 C 649.835938 132.03125 696.628906 124.960938 703.128906 156.203125 C 703.128906 156.34375 703.128906 156.484375 703.273438 156.628906 C 703.273438 156.628906 769.570312 400.898438 769.570312 400.898438 C 775.933594 426.769531 775.082031 453.769531 767.167969 480.0625 Z M 767.167969 480.0625 " fill-opacity="1" fill-rule="nonzero"/><path fill="#6ebec3" d="M 260.953125 200.589844 L 279.472656 182.070312 L 279.472656 304.632812 C 279.472656 312.40625 285.832031 318.769531 293.605469 318.769531 L 515.121094 318.769531 C 522.894531 318.769531 529.257812 312.40625 529.257812 304.632812 L 529.257812 182.070312 L 547.773438 200.589844 C 560.921875 213.59375 580.851562 193.804688 567.707031 180.660156 C 567.707031 180.660156 525.15625 138.109375 525.15625 138.109375 C 525.15625 138.109375 414.472656 27.421875 414.472656 27.421875 C 408.957031 21.910156 400.050781 21.910156 394.539062 27.421875 L 324.707031 96.832031 L 324.707031 63.1875 C 324.566406 44.667969 296.574219 44.667969 296.433594 63.1875 C 296.433594 63.1875 296.433594 125.105469 296.433594 125.105469 C 287.953125 133.585938 250.210938 171.328125 240.878906 180.660156 C 227.875 193.664062 247.804688 213.59375 260.953125 200.589844 Z M 404.292969 57.25 L 500.984375 153.941406 L 500.984375 290.636719 L 307.601562 290.636719 L 307.601562 153.941406 C 313.113281 148.429688 396.09375 65.308594 404.292969 57.25 Z M 404.292969 57.25 " fill-opacity="1" fill-rule="nonzero"/></svg>